<svg width="64" height="64" viewBox="0 0 64 64" fill="none" xmlns="http://www.w3.org/2000/svg">
<path d="M54.68 10.8498C51.7416 7.92599 47.8976 6.08643 43.7773 5.63225C39.6571 5.17808 35.5047 6.13621 32 8.34977C14.77 -2.17023 -4.07001 18.0898 7.53999 34.5798C7.38999 35.1098 29.76 56.8898 30.59 57.9098C30.7757 58.0957 30.9963 58.2432 31.2391 58.3439C31.4819 58.4445 31.7422 58.4963 32.005 58.4963C32.2678 58.4963 32.5281 58.4445 32.7709 58.3439C33.0137 58.2432 33.2342 58.0957 33.42 57.9098L54.68 36.6398C56.3777 34.9488 57.7248 32.9392 58.644 30.7264C59.5632 28.5135 60.0364 26.1409 60.0364 23.7448C60.0364 21.3486 59.5632 18.976 58.644 16.7632C57.7248 14.5503 56.3777 12.5407 54.68 10.8498V10.8498Z" fill="#ff0000" id="id_101"></path>
</svg>